<svg width="32" height="32" viewBox="0 0 32 32" fill="currentColor"
    xmlns="http://www.w3.org/2000/svg">
    <g clip-path="url(#clip0_7_30)">
        <path
            d="M22.6667 8.00002H29.3333V10.6667H26.6667V28C26.6667 28.3536 26.5262 28.6928 26.2761 28.9428C26.0261 29.1929 25.687 29.3334 25.3333 29.3334H6.66667C6.31305 29.3334 5.97391 29.1929 5.72386 28.9428C5.47381 28.6928 5.33334 28.3536 5.33334 28V10.6667H2.66667V8.00002H9.33334V4.00002C9.33334 3.6464 9.47381 3.30726 9.72386 3.05721C9.97391 2.80716 10.313 2.66669 10.6667 2.66669H21.3333C21.687 2.66669 22.0261 2.80716 22.2761 3.05721C22.5262 3.30726 22.6667 3.6464 22.6667 4.00002V8.00002ZM24 10.6667H8.00001V26.6667H24V10.6667ZM12 14.6667H14.6667V22.6667H12V14.6667ZM17.3333 14.6667H20V22.6667H17.3333V14.6667ZM12 5.33335V8.00002H20V5.33335H12Z"
            fill="currentColor" />
    </g>
    <defs>
        <clipPath id="clip0_7_30">
            <rect width="32" height="32" fill="currentColor" />
        </clipPath>
    </defs>
</svg>