<svg xmlns="http://www.w3.org/2000/svg" width="28" height="28" viewBox="0 0 28 28" fill="none">
    <path d="M8.55981 15.9594C10.4398 15.9594 11.9465 17.4808 11.9465 19.3741V23.9194C11.9465 25.7994 10.4398 27.3328 8.55981 27.3328H4.05314C2.18647 27.3328 0.666473 25.7994 0.666473 23.9194V19.3741C0.666473 17.4808 2.18647 15.9594 4.05314 15.9594H8.55981ZM23.9466 15.9594C25.8133 15.9594 27.3333 17.4808 27.3333 19.3741V23.9194C27.3333 25.7994 25.8133 27.3328 23.9466 27.3328H19.4399C17.5599 27.3328 16.0533 25.7994 16.0533 23.9194V19.3741C16.0533 17.4808 17.5599 15.9594 19.4399 15.9594H23.9466ZM8.55981 0.666504C10.4398 0.666504 11.9465 2.19984 11.9465 4.08117V8.6265C11.9465 10.5198 10.4398 12.0398 8.55981 12.0398H4.05314C2.18647 12.0398 0.666473 10.5198 0.666473 8.6265V4.08117C0.666473 2.19984 2.18647 0.666504 4.05314 0.666504H8.55981ZM23.9466 0.666504C25.8133 0.666504 27.3333 2.19984 27.3333 4.08117V8.6265C27.3333 10.5198 25.8133 12.0398 23.9466 12.0398H19.4399C17.5599 12.0398 16.0533 10.5198 16.0533 8.6265V4.08117C16.0533 2.19984 17.5599 0.666504 19.4399 0.666504H23.9466Z" fill="#B4B4C4"/>
  </svg>