<svg width="32" height="32" viewBox="0 0 32 32" fill="none" xmlns="http://www.w3.org/2000/svg">
<g clip-path="url(#clip0_7_42)">
<path d="M16 29.3334C8.63599 29.3334 2.66666 23.364 2.66666 16C2.66666 8.63602 8.63599 2.66669 16 2.66669C23.364 2.66669 29.3333 8.63602 29.3333 16C29.3333 23.364 23.364 29.3334 16 29.3334ZM16 26.6667C18.829 26.6667 21.5421 25.5429 23.5425 23.5425C25.5429 21.5421 26.6667 18.829 26.6667 16C26.6667 13.171 25.5429 10.4579 23.5425 8.45755C21.5421 6.45716 18.829 5.33335 16 5.33335C13.171 5.33335 10.4579 6.45716 8.45752 8.45755C6.45713 10.4579 5.33332 13.171 5.33332 16C5.33332 18.829 6.45713 21.5421 8.45752 23.5425C10.4579 25.5429 13.171 26.6667 16 26.6667ZM9.33332 16H12C12 17.0609 12.4214 18.0783 13.1716 18.8284C13.9217 19.5786 14.9391 20 16 20C17.0609 20 18.0783 19.5786 18.8284 18.8284C19.5786 18.0783 20 17.0609 20 16H22.6667C22.6667 17.7681 21.9643 19.4638 20.714 20.7141C19.4638 21.9643 17.7681 22.6667 16 22.6667C14.2319 22.6667 12.5362 21.9643 11.2859 20.7141C10.0357 19.4638 9.33332 17.7681 9.33332 16Z" fill="#4285F4"/>
</g>
<defs>
<clipPath id="clip0_7_42">
<rect width="32" height="32" fill="white"/>
</clipPath>
</defs>
</svg>
