<svg width="25" height="17" viewBox="0 0 25 17" fill="none" xmlns="http://www.w3.org/2000/svg">
    <path
        d="M23.7148 3.12109C23.457 2.08984 22.6406 1.27344 21.6523 1.01562C19.8047 0.5 12.5 0.5 12.5 0.5C12.5 0.5 5.15234 0.5 3.30469 1.01562C2.31641 1.27344 1.5 2.08984 1.24219 3.12109C0.726562 4.92578 0.726562 8.79297 0.726562 8.79297C0.726562 8.79297 0.726562 12.6172 1.24219 14.4648C1.5 15.4961 2.31641 16.2695 3.30469 16.5273C5.15234 17 12.5 17 12.5 17C12.5 17 19.8047 17 21.6523 16.5273C22.6406 16.2695 23.457 15.4961 23.7148 14.4648C24.2305 12.6172 24.2305 8.79297 24.2305 8.79297C24.2305 8.79297 24.2305 4.92578 23.7148 3.12109ZM10.0938 12.2734V5.3125L16.1953 8.79297L10.0938 12.2734Z"
        fill="#FF0000" />
</svg>
    