<svg width="63" height="63" viewBox="0 0 63 63" fill="none" xmlns="http://www.w3.org/2000/svg">
<g clip-path="url(#clip0_7_96)">
<path d="M55.2805 30.6642C49.168 24.8761 38.726 10.0521 35.1755 4.92171C34.4759 3.91444 33.1199 3.61356 32.06 4.23043L30.2943 5.24983C30.0569 5.38686 29.9734 5.68906 30.1067 5.92858L30.3028 6.26813C37.2324 19.5253 17.9733 30.6445 9.92995 18.0304C9.8633 17.9149 9.80056 17.8063 9.73391 17.6908C9.59963 17.4654 9.3144 17.3815 9.07945 17.4982L7.31381 18.5176C6.24961 19.1271 5.83218 20.4519 6.35473 21.5614C9.03605 27.1936 16.653 43.6486 18.6094 51.8362C19.0405 53.6337 21.9562 60.7695 29.1392 57.5278C36.3222 54.2862 41.7549 51.1496 41.7549 51.1496L43.1131 50.3654C43.1131 50.3654 48.5459 47.2288 54.9447 42.629C61.3436 38.0292 56.6216 31.9363 55.2805 30.6642Z" fill="#84B5CB"/>
<path d="M30.3349 6.2767C40.7002 25.5002 21.4275 36.6273 9.96207 18.0389C17.9919 30.661 37.251 19.5417 30.3349 6.2767Z" fill="#3B97D3"/>
<path d="M28.2345 55.3337L28.1666 55.3729C25.7448 56.4633 24.4708 55.8406 24.0439 55.6344C22.2337 54.7418 21.1394 52.3132 20.8945 51.2774C20.8027 50.9965 20.8767 50.6878 21.0859 50.4789C21.295 50.2701 21.6039 50.1966 21.8847 50.2889C22.1655 50.3811 22.3705 50.6235 22.4151 50.9156C22.5966 51.7163 23.5301 53.6311 24.7427 54.2258C24.9962 54.3511 25.7672 54.73 27.5183 53.9363C27.7084 53.8516 27.9244 53.846 28.1186 53.9206C28.3129 53.9953 28.4695 54.1441 28.554 54.3343C28.7188 54.7001 28.581 55.1313 28.2345 55.3337Z" fill="#9FC9D3"/>
<path d="M53.4968 40.7485C53.1478 40.9524 52.701 40.8575 52.4649 40.5294C52.3418 40.36 52.2916 40.1485 52.3254 39.9419C52.3592 39.7354 52.4742 39.5509 52.6448 39.4295C54.2077 38.3099 54.2312 37.4723 54.2833 37.1706C54.4017 35.8074 53.1987 34.0844 52.5804 33.4997C52.4278 33.3573 52.3383 33.1599 52.3318 32.9512C52.3252 32.7426 52.402 32.5399 52.5453 32.3881C52.8448 32.0752 53.3411 32.0643 53.654 32.3638C54.4286 33.0937 55.9847 35.2557 55.8526 37.2696C55.8178 37.7425 55.72 39.1571 53.5647 40.7093L53.4968 40.7485Z" fill="#9FC9D3"/>
</g>
<defs>
<clipPath id="clip0_7_96">
<rect width="45.4807" height="45.4807" fill="white" transform="translate(0 22.7402) rotate(-30)"/>
</clipPath>
</defs>
</svg>
