<svg width="100" height="100" viewBox="0 0 100 100" fill="none" xmlns="http://www.w3.org/2000/svg">
<g clip-path="url(#clip0_7_104)">
<path d="M9 87.9311H6.89655C3.08769 87.9311 0 84.8434 0 81.0345V72.4138C0.000665448 64.8159 5.50277 58.336 13 57.1035C14.4736 56.9026 15.635 55.7482 15.8448 54.2759L17.8276 38.3793C18.475 33.1693 22.9224 29.2703 28.1724 29.3104H57.9138C62.4403 29.3079 66.4427 32.2486 67.7931 36.569L73.431 54.6035C73.8483 55.9674 75.1081 56.8983 76.5345 56.8966H84.4828L98.3793 65.5173C99.4441 67.6604 99.9988 70.0207 100 72.4138V81.0345C100 84.8434 96.9123 87.9311 93.1034 87.9311H9Z" fill="#E64C3C"/>
<path d="M39.6552 50H23.3276L24.6724 39.2241C24.8909 37.4897 26.3726 36.1932 28.1207 36.2069L39.6552 36.2068V50Z" fill="#9FC9D3"/>
<path d="M46.5517 36.2068L57.9138 36.2068C59.4211 36.2052 60.7547 37.1827 61.2069 38.6206L64.7586 49.9999H46.5517V36.2068Z" fill="#9FC9D3"/>
<path d="M53.4483 62.0689H46.5517C45.5995 62.0689 44.8276 61.297 44.8276 60.3447C44.8276 59.3925 45.5995 58.6206 46.5517 58.6206H53.4483C54.4005 58.6206 55.1724 59.3925 55.1724 60.3447C55.1724 61.297 54.4005 62.0689 53.4483 62.0689Z" fill="#ECF0F1"/>
<path d="M29.3104 62.0689H22.4138C21.4616 62.0689 20.6897 61.297 20.6897 60.3447C20.6897 59.3925 21.4616 58.6206 22.4138 58.6206H29.3104C30.2626 58.6206 31.0345 59.3925 31.0345 60.3447C31.0345 61.297 30.2626 62.0689 29.3104 62.0689Z" fill="#ECF0F1"/>
<path d="M53.4483 0C50.4595 0.00253426 47.6178 1.29762 45.6552 3.55172C45.0006 4.29397 44.0586 4.71918 43.069 4.71918C42.0793 4.71918 41.1373 4.29397 40.4828 3.55172C37.3867 0.00709007 32.2882 -1.00093 28.0762 1.09882C23.8641 3.19857 21.6003 7.8768 22.5674 12.4828C23.5346 17.0887 27.4888 20.4613 32.1897 20.6897C34.1982 20.8129 36.1977 20.3326 37.931 19.3103V29.3103H48.2759V19.2931C50.0092 20.3153 52.0087 20.7957 54.0172 20.6724C59.5997 20.35 63.9156 15.6499 63.7618 10.0602C63.6079 4.4705 59.04 0.0148193 53.4483 0V0ZM32.7586 13.7931C30.8542 13.7931 29.3103 12.2493 29.3103 10.3448C29.3103 8.4404 30.8542 6.89655 32.7586 6.89655C34.663 6.89655 36.2069 8.4404 36.2069 10.3448C36.2069 11.2594 35.8436 12.1364 35.1969 12.7831C34.5502 13.4298 33.6732 13.7931 32.7586 13.7931ZM53.4483 13.7931C51.5438 13.7931 50 12.2493 50 10.3448C50 8.4404 51.5438 6.89655 53.4483 6.89655C55.3527 6.89655 56.8965 8.4404 56.8965 10.3448C56.8965 11.2594 56.5332 12.1364 55.8866 12.7831C55.2399 13.4298 54.3628 13.7931 53.4483 13.7931Z" fill="#F0C419"/>
<path d="M98.3793 65.5172H87.931C86.0266 65.5172 84.4828 63.9733 84.4828 62.0689V56.8965C90.3761 56.898 95.76 60.2378 98.3793 65.5172Z" fill="#F3D55B"/>
<path d="M39.6552 84.4828C39.653 85.6425 39.5258 86.7986 39.2759 87.9311C37.6813 95.0098 31.394 100.038 24.1379 100.038C16.8818 100.038 10.5946 95.0098 9.00001 87.9311C8.75004 86.7986 8.62287 85.6425 8.6207 84.4828C8.6207 75.9129 15.568 68.9656 24.1379 68.9656C32.7079 68.9656 39.6552 75.9129 39.6552 84.4828Z" fill="#464F5D"/>
<path d="M91.3793 84.4828C91.3771 85.6425 91.25 86.7986 91 87.9311C89.4054 95.0098 83.1182 100.038 75.8621 100.038C68.606 100.038 62.3187 95.0098 60.7241 87.9311C60.4742 86.7986 60.347 85.6425 60.3448 84.4828C60.3448 75.9129 67.2921 68.9656 75.8621 68.9656C84.432 68.9656 91.3793 75.9129 91.3793 84.4828Z" fill="#464F5D"/>
<path d="M75.8621 91.3793C79.6709 91.3793 82.7586 88.2916 82.7586 84.4827C82.7586 80.6739 79.6709 77.5862 75.8621 77.5862C72.0532 77.5862 68.9655 80.6739 68.9655 84.4827C68.9655 88.2916 72.0532 91.3793 75.8621 91.3793Z" fill="#ECF0F1"/>
<path d="M24.1379 91.3793C27.9468 91.3793 31.0345 88.2916 31.0345 84.4827C31.0345 80.6739 27.9468 77.5862 24.1379 77.5862C20.3291 77.5862 17.2414 80.6739 17.2414 84.4827C17.2414 88.2916 20.3291 91.3793 24.1379 91.3793Z" fill="#ECF0F1"/>
</g>
<defs>
<clipPath id="clip0_7_104">
<rect width="100" height="100" fill="white"/>
</clipPath>
</defs>
</svg>
